# xmcd
# Track frame offsets:
# 150
# 8641
# 29218
# 47814
# 61349
# 81019
# 94225
# 104780
# 120414
# 144410
# 161670
#
# Disc length: 2327 seconds
# Revision: 0
# Processed by: cddbd v1.5.2PL0 Copyright (c) Steve Scherf et al.
# Submitted via: VisiTrax 2.11.3.279 - For more info visit www.synapsa.com
#
DISCID=9209150b
DTITLE=Geno Washington and The Ram Jam Band - Running Wild: Original Vinyl Albu
DTITLE=m *ReMastered: CD3 of 3 Disc Set "Geno - Live!!!"
DYEAR=1968
DGENRE=R&B
TTITLE0=I Take What I Want*
TTITLE1=Knock On Wood*
TTITLE2=Gimme A Little Sign* - Raise Your Hand*
TTITLE3=Michael (The Lover)*
TTITLE4=Que Sera Sera*
TTITLE5=Rock Me Baby Pts 1&2*
TTITLE6=High-Heel Sneakers* - Mary Ann*
TTITLE7=I Get So Excited*
TTITLE8=Holdin On With Both Hands* - Day Tripper* - Baby Come Back*
TTITLE9=Jumpin' Jack Flash*
TTITLE10=I Got You Babe*
EXTD=Original Album "Pye Records" 1968\nThis Box Set Compilation and *ReMaste
EXTD=ring: Edsel/Sanctuary Records: 2016
EXTT0=
EXTT1=
EXTT2=
EXTT3=
EXTT4=
EXTT5=
EXTT6=
EXTT7=
EXTT8=
EXTT9=
EXTT10=
PLAYORDER=
